<mxfile host="app.diagrams.net" modified="2020-11-17T08:49:42.093Z" agent="5.0 (Windows NT 10.0; Win64; x64) AppleWebKit/537.36 (KHTML, like Gecko) Chrome/86.0.4240.198 Safari/537.36" etag="DELCEVqcsKfn8QXkr9KT" version="13.9.2" type="github">
  <diagram id="f4lan891kMNGsyqOKsSg" name="Page-1">
    <mxGraphModel dx="782" dy="468" grid="1" gridSize="10" guides="1" tooltips="1" connect="1" arrows="1" fold="1" page="1" pageScale="1" pageWidth="827" pageHeight="1169" math="0" shadow="0">
      <root>
        <mxCell id="0" />
        <mxCell id="1" parent="0" />
        <mxCell id="DSj267PYMwhFIxjZ_51a-1" value="" style="whiteSpace=wrap;html=1;aspect=fixed;" vertex="1" parent="1">
          <mxGeometry y="600" width="1040" height="1040" as="geometry" />
        </mxCell>
        <mxCell id="DSj267PYMwhFIxjZ_51a-2" value="" style="endArrow=none;html=1;" edge="1" parent="1" source="DSj267PYMwhFIxjZ_51a-1" target="DSj267PYMwhFIxjZ_51a-1">
          <mxGeometry width="50" height="50" relative="1" as="geometry">
            <mxPoint x="440" y="1410" as="sourcePoint" />
            <mxPoint x="490" y="1360" as="targetPoint" />
          </mxGeometry>
        </mxCell>
        <mxCell id="DSj267PYMwhFIxjZ_51a-3" value="" style="shape=image;verticalLabelPosition=bottom;verticalAlign=top;imageAspect=0;aspect=fixed;image=data:image/svg+xml,PHN2ZyB4bWxucz0iaHR0cDovL3d3dy53My5vcmcvMjAwMC9zdmciIHZlcnNpb249IjEiIHZpZXdCb3g9IjAgMCA0OCA0OCIgZW5hYmxlLWJhY2tncm91bmQ9Im5ldyAwIDAgNDggNDgiPiYjeGE7ICAgIDxyZWN0IHg9IjE3IiB5PSIyOSIgZmlsbD0iIzAzOUJFNSIgd2lkdGg9IjE0IiBoZWlnaHQ9IjIiLz4mI3hhOyAgICA8cmVjdCB4PSIxMyIgeT0iMzMiIGZpbGw9IiMwMzlCRTUiIHdpZHRoPSIyMiIgaGVpZ2h0PSIyIi8+JiN4YTsgICAgPHJlY3QgeD0iOSIgeT0iMzciIGZpbGw9IiMwMzlCRTUiIHdpZHRoPSIzMCIgaGVpZ2h0PSIyIi8+JiN4YTsgICAgPHJlY3QgeD0iNSIgeT0iNDEiIGZpbGw9IiMwMzlCRTUiIHdpZHRoPSIzOCIgaGVpZ2h0PSIyIi8+JiN4YTsgICAgPHBhdGggZmlsbD0iIzgxRDRGQSIgZD0iTTM1LDEzYy0wLjQsMC0wLjgsMC0xLjIsMC4xQzMyLjksOC41LDI4LjksNSwyNCw1Yy00LjEsMC03LjYsMi41LTkuMiw2Yy0wLjMsMC0wLjUsMC0wLjgsMCBjLTQuNCwwLTgsMy42LTgsOHMzLjYsOCw4LDhjMi40LDAsMTguNSwwLDIxLDBjMy45LDAsNy0zLjEsNy03QzQyLDE2LjEsMzguOSwxMywzNSwxM3oiLz4mI3hhOyAgICA8cGF0aCBmaWxsPSIjMDM5QkU1IiBkPSJNMjgsMjFjMC0yLjItMS44LTQtNC00cy00LDEuOC00LDRjMCwwLjUsMCw2LDAsNmg4QzI4LDI3LDI4LDIxLjUsMjgsMjF6Ii8+JiN4YTs8L3N2Zz4=" vertex="1" parent="1">
          <mxGeometry x="360" y="940" width="70" height="70" as="geometry" />
        </mxCell>
        <mxCell id="DSj267PYMwhFIxjZ_51a-4" value="" style="endArrow=none;html=1;exitX=-0.125;exitY=0.486;exitDx=0;exitDy=0;exitPerimeter=0;" edge="1" parent="1" source="DSj267PYMwhFIxjZ_51a-3">
          <mxGeometry width="50" height="50" relative="1" as="geometry">
            <mxPoint x="440" y="1010" as="sourcePoint" />
            <mxPoint x="160" y="974" as="targetPoint" />
            <Array as="points" />
          </mxGeometry>
        </mxCell>
        <mxCell id="DSj267PYMwhFIxjZ_51a-5" value="" style="shape=image;verticalLabelPosition=bottom;verticalAlign=top;imageAspect=0;aspect=fixed;image=data:image/svg+xml,PHN2ZyB4bWxucz0iaHR0cDovL3d3dy53My5vcmcvMjAwMC9zdmciIHZlcnNpb249IjEiIHZpZXdCb3g9IjAgMCA0OCA0OCIgZW5hYmxlLWJhY2tncm91bmQ9Im5ldyAwIDAgNDggNDgiPiYjeGE7ICAgIDxnIGZpbGw9IiNEMUM0RTkiPiYjeGE7ICAgICAgICA8cGF0aCBkPSJNMzgsN0gxMEM4LjksNyw4LDcuOSw4LDl2NmMwLDEuMSwwLjksMiwyLDJoMjhjMS4xLDAsMi0wLjksMi0yVjlDNDAsNy45LDM5LjEsNywzOCw3eiIvPiYjeGE7ICAgICAgICA8cGF0aCBkPSJNMzgsMTlIMTBjLTEuMSwwLTIsMC45LTIsMnY2YzAsMS4xLDAuOSwyLDIsMmgyOGMxLjEsMCwyLTAuOSwyLTJ2LTZDNDAsMTkuOSwzOS4xLDE5LDM4LDE5eiIvPiYjeGE7ICAgICAgICA8cGF0aCBkPSJNMzgsMzFIMTBjLTEuMSwwLTIsMC45LTIsMnY2YzAsMS4xLDAuOSwyLDIsMmgyOGMxLjEsMCwyLTAuOSwyLTJ2LTZDNDAsMzEuOSwzOS4xLDMxLDM4LDMxeiIvPiYjeGE7ICAgIDwvZz4mI3hhOzwvc3ZnPg==" vertex="1" parent="1">
          <mxGeometry x="290" y="930" width="40" height="40" as="geometry" />
        </mxCell>
        <mxCell id="DSj267PYMwhFIxjZ_51a-7" value="" style="shape=image;verticalLabelPosition=bottom;verticalAlign=top;imageAspect=0;aspect=fixed;image=data:image/svg+xml,PHN2ZyB4bWxucz0iaHR0cDovL3d3dy53My5vcmcvMjAwMC9zdmciIHZlcnNpb249IjEiIHZpZXdCb3g9IjAgMCA0OCA0OCIgZW5hYmxlLWJhY2tncm91bmQ9Im5ldyAwIDAgNDggNDgiPiYjeGE7ICAgIDxnIGZpbGw9IiNEMUM0RTkiPiYjeGE7ICAgICAgICA8cGF0aCBkPSJNMzgsN0gxMEM4LjksNyw4LDcuOSw4LDl2NmMwLDEuMSwwLjksMiwyLDJoMjhjMS4xLDAsMi0wLjksMi0yVjlDNDAsNy45LDM5LjEsNywzOCw3eiIvPiYjeGE7ICAgICAgICA8cGF0aCBkPSJNMzgsMTlIMTBjLTEuMSwwLTIsMC45LTIsMnY2YzAsMS4xLDAuOSwyLDIsMmgyOGMxLjEsMCwyLTAuOSwyLTJ2LTZDNDAsMTkuOSwzOS4xLDE5LDM4LDE5eiIvPiYjeGE7ICAgICAgICA8cGF0aCBkPSJNMzgsMzFIMTBjLTEuMSwwLTIsMC45LTIsMnY2YzAsMS4xLDAuOSwyLDIsMmgyOGMxLjEsMCwyLTAuOSwyLTJ2LTZDNDAsMzEuOSwzOS4xLDMxLDM4LDMxeiIvPiYjeGE7ICAgIDwvZz4mI3hhOzwvc3ZnPg==" vertex="1" parent="1">
          <mxGeometry x="180" y="930" width="40" height="40" as="geometry" />
        </mxCell>
        <mxCell id="DSj267PYMwhFIxjZ_51a-8" value="" style="shape=image;verticalLabelPosition=bottom;verticalAlign=top;imageAspect=0;aspect=fixed;image=data:image/svg+xml,PHN2ZyB4bWxucz0iaHR0cDovL3d3dy53My5vcmcvMjAwMC9zdmciIHZlcnNpb249IjEiIHZpZXdCb3g9IjAgMCA0OCA0OCIgZW5hYmxlLWJhY2tncm91bmQ9Im5ldyAwIDAgNDggNDgiPiYjeGE7ICAgIDxnIGZpbGw9IiNEMUM0RTkiPiYjeGE7ICAgICAgICA8cGF0aCBkPSJNMzgsN0gxMEM4LjksNyw4LDcuOSw4LDl2NmMwLDEuMSwwLjksMiwyLDJoMjhjMS4xLDAsMi0wLjksMi0yVjlDNDAsNy45LDM5LjEsNywzOCw3eiIvPiYjeGE7ICAgICAgICA8cGF0aCBkPSJNMzgsMTlIMTBjLTEuMSwwLTIsMC45LTIsMnY2YzAsMS4xLDAuOSwyLDIsMmgyOGMxLjEsMCwyLTAuOSwyLTJ2LTZDNDAsMTkuOSwzOS4xLDE5LDM4LDE5eiIvPiYjeGE7ICAgICAgICA8cGF0aCBkPSJNMzgsMzFIMTBjLTEuMSwwLTIsMC45LTIsMnY2YzAsMS4xLDAuOSwyLDIsMmgyOGMxLjEsMCwyLTAuOSwyLTJ2LTZDNDAsMzEuOSwzOS4xLDMxLDM4LDMxeiIvPiYjeGE7ICAgIDwvZz4mI3hhOzwvc3ZnPg==" vertex="1" parent="1">
          <mxGeometry x="250" y="930" width="40" height="40" as="geometry" />
        </mxCell>
        <mxCell id="DSj267PYMwhFIxjZ_51a-10" value="" style="shape=image;verticalLabelPosition=bottom;verticalAlign=top;imageAspect=0;aspect=fixed;image=data:image/svg+xml,PHN2ZyB4bWxucz0iaHR0cDovL3d3dy53My5vcmcvMjAwMC9zdmciIHZlcnNpb249IjEiIHZpZXdCb3g9IjAgMCA0OCA0OCIgZW5hYmxlLWJhY2tncm91bmQ9Im5ldyAwIDAgNDggNDgiPiYjeGE7ICAgIDxwYXRoIGZpbGw9IiNGRjk4MDAiIGQ9Ik00NCwxOHYtNEgzNFY0aC00djEwaC00VjRoLTR2MTBoLTRWNGgtNHYxMEg0djRoMTB2NEg0djRoMTB2NEg0djRoMTB2MTBoNFYzNGg0djEwaDRWMzRoNHYxMGg0VjM0aDEwdi00SDM0IHYtNGgxMHYtNEgzNHYtNEg0NHoiLz4mI3hhOyAgICA8cGF0aCBmaWxsPSIjNENBRjUwIiBkPSJNOCwxMnYyNGMwLDIuMiwxLjgsNCw0LDRoMjRjMi4yLDAsNC0xLjgsNC00VjEyYzAtMi4yLTEuOC00LTQtNEgxMkM5LjgsOCw4LDkuOCw4LDEyeiIvPiYjeGE7ICAgIDxwYXRoIGZpbGw9IiMzNzQ3NEYiIGQ9Ik0zMSwzMUgxN2MtMS4xLDAtMi0wLjktMi0yVjE5YzAtMS4xLDAuOS0yLDItMmgxNGMxLjEsMCwyLDAuOSwyLDJ2MTBDMzMsMzAuMSwzMi4xLDMxLDMxLDMxeiIvPiYjeGE7PC9zdmc+" vertex="1" parent="1">
          <mxGeometry x="550" y="1060.36" width="48" height="48" as="geometry" />
        </mxCell>
        <mxCell id="DSj267PYMwhFIxjZ_51a-11" value="" style="shape=image;verticalLabelPosition=bottom;verticalAlign=top;imageAspect=0;aspect=fixed;image=data:image/svg+xml,PHN2ZyB4bWxucz0iaHR0cDovL3d3dy53My5vcmcvMjAwMC9zdmciIHZlcnNpb249IjEiIHZpZXdCb3g9IjAgMCA0OCA0OCIgZW5hYmxlLWJhY2tncm91bmQ9Im5ldyAwIDAgNDggNDgiPiYjeGE7ICAgIDxwYXRoIGZpbGw9IiNGRjk4MDAiIGQ9Ik00NCwxOHYtNEgzNFY0aC00djEwaC00VjRoLTR2MTBoLTRWNGgtNHYxMEg0djRoMTB2NEg0djRoMTB2NEg0djRoMTB2MTBoNFYzNGg0djEwaDRWMzRoNHYxMGg0VjM0aDEwdi00SDM0IHYtNGgxMHYtNEgzNHYtNEg0NHoiLz4mI3hhOyAgICA8cGF0aCBmaWxsPSIjNENBRjUwIiBkPSJNOCwxMnYyNGMwLDIuMiwxLjgsNCw0LDRoMjRjMi4yLDAsNC0xLjgsNC00VjEyYzAtMi4yLTEuOC00LTQtNEgxMkM5LjgsOCw4LDkuOCw4LDEyeiIvPiYjeGE7ICAgIDxwYXRoIGZpbGw9IiMzNzQ3NEYiIGQ9Ik0zMSwzMUgxN2MtMS4xLDAtMi0wLjktMi0yVjE5YzAtMS4xLDAuOS0yLDItMmgxNGMxLjEsMCwyLDAuOSwyLDJ2MTBDMzMsMzAuMSwzMi4xLDMxLDMxLDMxeiIvPiYjeGE7PC9zdmc+" vertex="1" parent="1">
          <mxGeometry x="180" y="1060" width="48" height="48" as="geometry" />
        </mxCell>
        <mxCell id="DSj267PYMwhFIxjZ_51a-13" value="" style="shape=image;verticalLabelPosition=bottom;verticalAlign=top;imageAspect=0;aspect=fixed;image=data:image/svg+xml,PHN2ZyB4bWxucz0iaHR0cDovL3d3dy53My5vcmcvMjAwMC9zdmciIHZlcnNpb249IjEiIHZpZXdCb3g9IjAgMCA0OCA0OCIgZW5hYmxlLWJhY2tncm91bmQ9Im5ldyAwIDAgNDggNDgiPiYjeGE7ICAgIDxwYXRoIGZpbGw9IiNGRjk4MDAiIGQ9Ik00NCwxOHYtNEgzNFY0aC00djEwaC00VjRoLTR2MTBoLTRWNGgtNHYxMEg0djRoMTB2NEg0djRoMTB2NEg0djRoMTB2MTBoNFYzNGg0djEwaDRWMzRoNHYxMGg0VjM0aDEwdi00SDM0IHYtNGgxMHYtNEgzNHYtNEg0NHoiLz4mI3hhOyAgICA8cGF0aCBmaWxsPSIjNENBRjUwIiBkPSJNOCwxMnYyNGMwLDIuMiwxLjgsNCw0LDRoMjRjMi4yLDAsNC0xLjgsNC00VjEyYzAtMi4yLTEuOC00LTQtNEgxMkM5LjgsOCw4LDkuOCw4LDEyeiIvPiYjeGE7ICAgIDxwYXRoIGZpbGw9IiMzNzQ3NEYiIGQ9Ik0zMSwzMUgxN2MtMS4xLDAtMi0wLjktMi0yVjE5YzAtMS4xLDAuOS0yLDItMmgxNGMxLjEsMCwyLDAuOSwyLDJ2MTBDMzMsMzAuMSwzMi4xLDMxLDMxLDMxeiIvPiYjeGE7PC9zdmc+" vertex="1" parent="1">
          <mxGeometry x="370.98" y="1060" width="48" height="48" as="geometry" />
        </mxCell>
        <mxCell id="DSj267PYMwhFIxjZ_51a-16" value="" style="endArrow=classic;startArrow=classic;html=1;entryX=0.25;entryY=1;entryDx=0;entryDy=0;exitX=0.5;exitY=0;exitDx=0;exitDy=0;" edge="1" parent="1" source="DSj267PYMwhFIxjZ_51a-11" target="DSj267PYMwhFIxjZ_51a-3">
          <mxGeometry width="50" height="50" relative="1" as="geometry">
            <mxPoint x="350" y="1110" as="sourcePoint" />
            <mxPoint x="400" y="1060" as="targetPoint" />
          </mxGeometry>
        </mxCell>
        <mxCell id="DSj267PYMwhFIxjZ_51a-17" value="" style="endArrow=classic;startArrow=classic;html=1;exitX=0.5;exitY=0;exitDx=0;exitDy=0;" edge="1" parent="1" source="DSj267PYMwhFIxjZ_51a-13">
          <mxGeometry width="50" height="50" relative="1" as="geometry">
            <mxPoint x="350" y="1110" as="sourcePoint" />
            <mxPoint x="395" y="1010" as="targetPoint" />
          </mxGeometry>
        </mxCell>
        <mxCell id="DSj267PYMwhFIxjZ_51a-18" value="" style="endArrow=classic;startArrow=classic;html=1;entryX=0.75;entryY=1;entryDx=0;entryDy=0;exitX=0.5;exitY=0;exitDx=0;exitDy=0;" edge="1" parent="1" source="DSj267PYMwhFIxjZ_51a-10" target="DSj267PYMwhFIxjZ_51a-3">
          <mxGeometry width="50" height="50" relative="1" as="geometry">
            <mxPoint x="350" y="1110" as="sourcePoint" />
            <mxPoint x="400" y="1060" as="targetPoint" />
          </mxGeometry>
        </mxCell>
        <mxCell id="DSj267PYMwhFIxjZ_51a-19" value="" style="shape=image;verticalLabelPosition=bottom;verticalAlign=top;imageAspect=0;aspect=fixed;image=data:image/svg+xml,PHN2ZyB4bWxucz0iaHR0cDovL3d3dy53My5vcmcvMjAwMC9zdmciIHZlcnNpb249IjEiIHZpZXdCb3g9IjAgMCA0OCA0OCIgZW5hYmxlLWJhY2tncm91bmQ9Im5ldyAwIDAgNDggNDgiPiYjeGE7ICAgIDxnIGZpbGw9IiNEMUM0RTkiPiYjeGE7ICAgICAgICA8cGF0aCBkPSJNMzgsN0gxMEM4LjksNyw4LDcuOSw4LDl2NmMwLDEuMSwwLjksMiwyLDJoMjhjMS4xLDAsMi0wLjksMi0yVjlDNDAsNy45LDM5LjEsNywzOCw3eiIvPiYjeGE7ICAgICAgICA8cGF0aCBkPSJNMzgsMTlIMTBjLTEuMSwwLTIsMC45LTIsMnY2YzAsMS4xLDAuOSwyLDIsMmgyOGMxLjEsMCwyLTAuOSwyLTJ2LTZDNDAsMTkuOSwzOS4xLDE5LDM4LDE5eiIvPiYjeGE7ICAgICAgICA8cGF0aCBkPSJNMzgsMzFIMTBjLTEuMSwwLTIsMC45LTIsMnY2YzAsMS4xLDAuOSwyLDIsMmgyOGMxLjEsMCwyLTAuOSwyLTJ2LTZDNDAsMzEuOSwzOS4xLDMxLDM4LDMxeiIvPiYjeGE7ICAgIDwvZz4mI3hhOzwvc3ZnPg==" vertex="1" parent="1">
          <mxGeometry x="180" y="920" width="40" height="40" as="geometry" />
        </mxCell>
        <mxCell id="DSj267PYMwhFIxjZ_51a-20" value="" style="shape=image;verticalLabelPosition=bottom;verticalAlign=top;imageAspect=0;aspect=fixed;image=data:image/svg+xml,PHN2ZyB4bWxucz0iaHR0cDovL3d3dy53My5vcmcvMjAwMC9zdmciIHZlcnNpb249IjEiIHZpZXdCb3g9IjAgMCA0OCA0OCIgZW5hYmxlLWJhY2tncm91bmQ9Im5ldyAwIDAgNDggNDgiPiYjeGE7ICAgIDxnIGZpbGw9IiNEMUM0RTkiPiYjeGE7ICAgICAgICA8cGF0aCBkPSJNMzgsN0gxMEM4LjksNyw4LDcuOSw4LDl2NmMwLDEuMSwwLjksMiwyLDJoMjhjMS4xLDAsMi0wLjksMi0yVjlDNDAsNy45LDM5LjEsNywzOCw3eiIvPiYjeGE7ICAgICAgICA8cGF0aCBkPSJNMzgsMTlIMTBjLTEuMSwwLTIsMC45LTIsMnY2YzAsMS4xLDAuOSwyLDIsMmgyOGMxLjEsMCwyLTAuOSwyLTJ2LTZDNDAsMTkuOSwzOS4xLDE5LDM4LDE5eiIvPiYjeGE7ICAgICAgICA8cGF0aCBkPSJNMzgsMzFIMTBjLTEuMSwwLTIsMC45LTIsMnY2YzAsMS4xLDAuOSwyLDIsMmgyOGMxLjEsMCwyLTAuOSwyLTJ2LTZDNDAsMzEuOSwzOS4xLDMxLDM4LDMxeiIvPiYjeGE7ICAgIDwvZz4mI3hhOzwvc3ZnPg==" vertex="1" parent="1">
          <mxGeometry x="290" y="900" width="40" height="40" as="geometry" />
        </mxCell>
        <mxCell id="DSj267PYMwhFIxjZ_51a-21" value="&lt;font style=&quot;font-size: 15px&quot;&gt;Master&lt;/font&gt;" style="text;html=1;resizable=0;autosize=1;align=center;verticalAlign=middle;points=[];fillColor=none;strokeColor=none;rounded=0;shadow=0;strokeWidth=2;" vertex="1" parent="1">
          <mxGeometry x="419" y="950" width="60" height="20" as="geometry" />
        </mxCell>
        <mxCell id="DSj267PYMwhFIxjZ_51a-22" value="" style="shape=image;verticalLabelPosition=bottom;labelBackgroundColor=#ffffff;verticalAlign=top;aspect=fixed;imageAspect=0;image=data:image/png,iVBORw0KGgoAAAANSUhEUgAAAKYAAABPCAYAAABhw749AAAMA0lEQVR4Ae1dZa8VOxR9/4kPuAUJLkGCOwQneHB39/ABEtxdAoH3CC4hOAQPGiy4hw99WfPeGvaZM+2Ry70zZ87eyU3ndKqrq+1udzv3L6OiCMQQgb9iWCYtkiJglJhKglgioMSMZbNooZSYyoFYIqDEjGWzaKGUmMqBWCKgxIxls2ihlJjKgVgioMSMZbNooZSYyoFYIqDEjGWzaKGUmMqBWCKgxIxls2ihlJjKgVgioMSMZbNooZSYyoFYIqDEjGWzaKEKhpgXL140+FMpDgQKgpiNGzc25cqV8/6Ko1m0lrEn5rRp03xSgpxv377VVisCBGJNzFu3bqWQEsS8f/9+ETSLVjHWxJw8eXIaMc+fP6+tVgQIxJaY//z9TxopMWIeOnSoCJpFqxhLYv78+dN06tgplJgbN27UVisCBGJJzJUrV4aSEiPmsmXLiqBZtIqxI+bNmzdNxYoVPWL26tUrjaBTpkzRVisCBGJHzBEjRnhkrFGjhgkj5uDBg4ugWbSKsSLmvn37/BFyw4YNZtCgQf5vTOP469y5s7ZaESAQG2J++PDBtGzZ0iPfkCFDPOjDtotgBVJJPgKxIebSpUs9UlaoUMFcv37dQx4LHY6UdKtUqZL8VtEaxuOjWnfu3DGVKlXySIgVOWXbtm1pxARBv337xiDqJhSBWIyYEyZM8AjYpEkT8/79ex/qkydPhhLz+fPnfhh9SCYCkRPz9OnTPvnWr1+fgvK9e/f8d5zK4XKqTwmcoB+fPn0yFy5cMJg99u/fbzKZYd+8eWO2b99uzpw5Y758+ZIIJCInZt++fT3ytW3b1sDiI+Xz58+hxDx+/LgMlphndNKuXbuG1hnbZI8fP06p65EjRwz8ZaetW7eumT9/vnn69GlK2EL7ESkxd+/e7YO6Z8+eUOy42S7B37VrV2jYQvbcsWOHj0XVqlVNixYtTJs2bXw/1L9jx44GoykEpCQm2O/lH/2GDRtWyHBEt/h59+6dad68uQeuC8TatWv7DUDQV61aVdCgBwsvTbAgqJRXr16ZUaNG+Rj069cvhZTr1q3zg2OGGTBggB/24MGD/rtCe4hsxFywYIEHYPny5Z06Y9OmTX2gScx58+YVGs7W8mLKZb1sga5eveqHYVi4soNioYhpXL6fOHGiLcnY+0dCTNzdIYArVqxwgtS+fXs/LOOMGzfOGaeQXg4cONCrX6ZTU6w73datW6dsmw0dOjQNJxgoClUiISanm3bt2pmPHz86sQuzl/fv398Zp1BecgrPNLJhe4yEpAuTrRScLeA7uocPH5ZBCuq5zIm5detWH8BsdCCpXxHwDh06FBTItsLWq1fPw+LUqVO2IJ6/nGGIAYwSUoIdGLscmTq9jB+35zIlJhT5hg0beo0xduzYrLCYM2eOT2Q2SqNGjbKKG+dAXIVjpZ1JMDqy7nBBuqBcvnzZ2zrCyDl8+PAUQ0UwbCH8LlNi0vYN8LLdJF+zZk1Ko6BhKleuXAjYOsuIi3aYys+ePesMh5dUfUjOJC3+bJUvM2Jic5h6EBoklz82iHS/fv1qq1Oi/J88eZLWMY8dO5aoOoZVpsyIiV4uiVXS56AVJKxySfDbuXNnCm7VqlXzN9mTUD9bHcqEmFDUsV9ZUjLK+MXyuRis2GW9k7IjYSMk/cuEmDzwi4PA+QhGCdk4eC6Wa7y0jrH+UIGKQUqdmPJ+eDaKfhjo9evXTyOmNMWFxUmCH9QVEpIuThAVg5QqMeX9cJx4yVd45YKNA3fRokVZJ4ejYFgFu/b1EAY3NKEiuL6P9OvXL/Pw4UMD9USeHc26MDkElIdcWPc/dawNbYP6uur6/ft3Dzdgkum0EowAmdLLoeqle4gD0w4AxUYyzgzmK7iAxoahm+013uAG/ciRIw0Ah4BkWJSFET84ZR44cMDAPIqrHywDXBw7O3HiRL5VM48ePTIvX74MjT9+/PiUvHBuIJPs3bvXO2k0c+ZMa1BsweEEE+uBOmCPmbJ582YDqxzf04W+++DBAwYz2Dvt1q2bqVmzZkrYkmKCDEptxMQ+JRsx2Mh+zbJ84JlNAgQXm8iZBPeIABoOQYBYjI/yXLp0yduoxql5fFEOagY6z+zZs/1wNBXCjo24ffr0MWvXrvVGGZCxWbNmnj8uyPE4WqYy8T3KBHs3ywTLTVCC+qXrFBbj0gKEg8NhAt0cecLqhjKQoMATo96YMWM8zNCBgRkERGU5aXXDu+rVqxv8Xrx4sbl79643unLPFeliBM1XSo2YuOmIypR0tETFABqBoRvWkBIE6Ge4RwRQKYzbqlUrA721Z8+efOW7uE/E+0cIjxM8cMPOi8rNf5mPn5jl4cePH2mjDPKQ0yVGMJaXbqYOTtMlCI08wqR79+5GWt1IZOSBtkJHDpo7kQ47IcKhHHBhlQuKHABmzZoVfJ3171IhJi08KPz06dOzLowtIKZtpCX/Ml3jJXjYoIaw0ZgGRkpJBJk3zIQMBwIvX75cvvafMWoyHE73ZCsYrRhPuvIu05YtW9LCZDpbMHr0aC+OPA4ny8RrLEwHOjdHTJbj6NGjMor/LAmMsLxi7Qf4/wEzD9PC6Jmv/HFizpgxwy8YCghClFSw0GFlpetKF9Ok3PPDdQzGxan4c+fOWaPjijDDcjoPC0zyIyzUgWxFxmM+8kMO0DsbNGjgl4FhXIc9iFHv3r3TrqiwXFBTsPXGRSBOHzFtuME7V4wHVxITHde2aIKOyzSzUbdkHvK5xMSEbgUTGfQMnK5moeiiQrgGkKtgKkM8NGKwVzNt6HvQZaXiznwQBnEpS5Ys8csm/fmeLpR7po9GdC3a5H2b4MlzphfmoszMAy5UCy4qsFru0aOH9x6dS37m21ZujsB16tTxdgzC8oQf8oLuSMECieWQnZjvpSvbwLXYW716tZ9mJFM5VrZSeWcFXa4NWAmAPBbnSivsHcpjE7myd+0FShNgLo0VppfZygJ/khplvn37tsFVE4w2PDgMf5AVCwieMUCdMeqB2FBR0BmYDlbsuV7SkytvV9vIE/TorK4tK5YHZd20aZMLAue7vEdMgBlGDpdfNpfIAJArDdc7qdTLWoM0jJcJWGkCdDWW1FlxlC9XwahTq1Ytv1wsH1ySkmliCpfvg88Y+V6/fs3gWbkYWGQ6rs4q28TVWTHay4UjZ4GsChQIlDcxkQ4aJ9e/QP5pP1GZXNOU4dMSNMbASsRGcAGLuHKLxtVYcoE3adKksGwz+r148cIsXLjQ198w2mBapg4oE8DCCCMqpmLUBWoTFjn5WtOgYxOTTJ1VXil2dVa5GHTNXrJetucSEdOWaNz8ubeGhnABC0tOto3VqdPvLx4Xot0+21EQxwuJCVxXZ4VOybBz584tEQ0ST0xYdzAiEDAXsHLl7hpZpc6FRQH0QwpG70IQabRwdVapRmBD3aVfyoUaviRCASYSI/q73MQT88qVKz4podPRHBkGCrdcQGLbXiDiyXDSGvPs2TMvL1dDh+UbhR9uAbCzShIFyyKNCFA1bCIJjKlfCjbnc8Uk8cTE3hwbINO+Guy+DAuTpU2kbR27CBQehnZtMTFslK5cuMLag1nFJnIxCJLaZOrUqT528uQXt7Kwk5CLJJ6YXCyAcMErrxIoLC5ISpdVCf8Ai+Hg0lrDlX8uG+0y/7J85kU4lB+HXFyCi2+s77Vr16xB5Q4D7OaULl265PUV6MQTU57ldO01SouFy9oDwPl1EBgPKOgAOOThUhUYNmqXB7dBONthD5RR3jfCt5Rc0rfPfx9HQ5oUTN8g7I0bN+iVtZt4YrK3S5NfGDoAkWFpSw4LBz9pBEA8LCSwWW07vmZLJyp/TN+sK88ShJVFXhvGxr5L9u75bYpEx4buDVK6zKiu9BJPTIxk+DBXpq9S4IADRsCg4m4DDyMspm0c3gA5C2GkZF2oN2ZSO7CnDPyASdjeKtOjCwyxTQQcsUCEzT9fSTwx8wVG40WLgBIzWvw1dwsCSkwLMOodLQJKzGjx19wtCCgxLcCod7QIKDGjxV9ztyCgxLQAo97RIqDEjBZ/zd2CgBLTAox6R4uAEjNa/DV3CwJKTAsw6h0tAkrMaPHX3C0IKDEtwKh3tAj8Cwz370h/QqrAAAAAAElFTkSuQmCC;" vertex="1" parent="1">
          <mxGeometry x="285" y="876.21" width="55" height="26.17" as="geometry" />
        </mxCell>
        <mxCell id="DSj267PYMwhFIxjZ_51a-23" value="" style="shape=image;verticalLabelPosition=bottom;labelBackgroundColor=#ffffff;verticalAlign=top;aspect=fixed;imageAspect=0;image=data:image/png,iVBORw0KGgoAAAANSUhEUgAAAMUAAABbCAYAAADDVEHDAAANaElEQVR4Ae1dB6sUOxR+/0lUbNdewQ52r4oidrA9sYtdsYsVROy9Xb0W7B3BLla4YgUbir1CHt88zngmO5OZu7szm9k9B5ZMySSZ7+TLJDkn2X+UiCAgCHgQ+MdzJieCgCCghBRSCQQBDQEhhQaInAoCQgqpA4KAhoCQQgNETgUBIYXUAUFAQ0BIoQEip4KAkELqgCCgISCk0ACRU0FASCF1QBDQEBBSaIDIqSAgpJA6IAhoCAgpNEDkVBAQUkgdEAQ0BKwjxa9fv9T58+fVpk2b1Llz59TXr1+1IntPq6qq1OXLl70X5UwQyAEBq0ixYcMG1bhxY1WjRg3317p1azVv3jxVWVmpXr586XlVkKZLly5O3OPHj3vuyYkgkC0C1pBizZo1LhE4KfTjZs2aqYEDByqQhe4NHz489IuSLUDyXOkhYAUpduzY4VZwqujVCV+/fl16mpM3jg2BgpPiyZMnLiGGDh2qbt686bT6qOhXr15VM2fOVPXr13fjcLKUlZU58WNDRxIuSQQKTgqgjvHAuHHjAhXw7ds3VVFRoUaMGKGaN2/ujCMWLlyoPnz4EPiM3BAEskXAClJkW3h5ThCIAwEhRRyoSpqpRkBIkWr1SeHjQEBIEQeqkmaqEUgNKS5evKg6dOjgzEL9/v071aBL4e1GIBWkOHPmjGdK9s2bN3ajKqVLNQLWkwK+UH369PGQ4uHDh6kGXQpvNwLWk8LP/ePKlSt2oyqlSzUCVpPi7t27qm7dup6vBCzax44dSzXoUni7EbCaFP+O/TeDECDF9u3b7UZVSpdqBKwlRcWBCl9CgBSrV69ONehSeLsRsJIU8HWidRLcAZCO58yZYzeqUrpUI2AlKdatW+d+Jfr37+8eEynGjh2batCl8HYjYB0psLoOnrAgwMSJExVW4xEZKBwwYIDdqErpUo2AdaRYsGCBQ4JatWqpa9euqQMHDmSQolOnTqkGXQpvNwJWkQILjOhrgHXZEGxiQNcoxDpuEUEgLgSsIsXIkSMdAmAd9vPnz513vn37dgYpQI4fP37EhYmkW+IIWEOKPXv2uJV/8+bNrloeP37sXqcvBcJXr165ceRAEMgnAlaQ4u3bt6pdu3ZO5cfOHFzg/MfJQMf379/n0eRYEMgbAlaQggbXNWvWzNiIADYLIgIP4Uoukl8EsPHcwYMHFfTRvXt3VadOHdW5c2c1YcIEX9cabEKH6XNsOAHdwLUfXWDsx5VmKTgp4NxHlR3Of34C5VAcCg8dOuQXVa5licCtW7ccIhC+fiF2bSTBZhN+cehamv3TCk4KdJcAZI8ePdT3798Jc0/Yvn37DAVs3LjRE0dOskdg9+7dLr5o6TG+e/bsmfPDcb169dz72FWFE2L27NlOxp8+fXK2JCJ9ojuMa2mUgpLiyJEjLtimlgU7AlILRCG2uBHJHYFLly652B4+fNg3QT/3fehh7dq1bvyPHz+qadOmuWnh/unTp937aTooKCn69u3rgAhvWJNMnjzZAzYAF1cPE2LR7sF7gBqZpUuXBj504cIFNx7FhwEVRCDx82jetm0b3U5VWDBS8K0yHzx4YARt+fLlGUopLy83PiM3wxHA5nKo5BhIm4R3l4gUu3btch95//59hn4QD9PpaZSCkOLz58/OrAaAW7RoUShuaHFIGRS2bNky9LlijYDuDLYUzUUwc0RYhqW1ZcsWNy6ewcTHu3fv3OxhaKW0KMQS4rRKQUjBvWCDBtccUIw3CGweltquHpipmzRpkoNF0Ewdx810vGTJEicdjNfCZNasWR78dVsSnufjPtxP86bXiZMCn9QmTZo4IG/dujVMH859tGScDHT84sWLSM+nNRIqFroumFRAd5HeG2GupMCgGBUZs0lhgvEDz3v9+vW+j8DLABtmp10SJ8XUqVMdgFu0aOF0AVDho/y4Uug47LOfZuXwlpfel1/LlRRRsbl+/bqHECgL/NGKWRIlxYkTJzIAJoVnE549e7ZodQMCwGYwd+5cZ0067AaFIAXIx3UDC3exS2Kk+Pnzp+rdu7cHYA52NsdB8+rFqrRCkGLQoEEeneH/QopdEiMFDD1U8aN0l/Q4DRs2dJ+ndGCJLSVJmhSwSNeuXduDeym41yRCCr5/07Jly7Kqx+RFS4RAiKWqpSRJkwIWaY43jot9cgP1KRFSkLUTK+bgJp6N6LMvUJDJCptNHrY/kzQpMOvFSYGGqRQkdlLw/ZtymTEh6ytXUnVcPbCsFQNXrOrDDiH79+/36Bf708JIOH78ePdvizFt6eeizt2r8X985b3LnSnSbAnvKYjhJGlSwH2c4236CzYqNoyC0LMJC7iNANsGDRpE0kXHjh0VHA/9XNIxeYPeB8ar+dJFrKSA1ZO2z+/atWtOf+vr5//UrVs30oUxJDcFKBU/UjSuQzA2ge2kVatWDnGg1KZNm7rx4JJCQhWzV69eav78+U58Sg/XYK2PSyhv5JdLA4PyQTdjxoxRjRo1ct7hxo0bnmJjbQW9F4VR8qTJlKC4cFGH1222uoDXLgkZFfOti1hJgUpDgKJ1zUXgDkJpUYh9ZsMEs1747JOSuJ8OLK9kN4ErAxdMgVI+bdq0cW7hv7thyIJiufD3jLNLly9SwIsArvr0fgiRNhdMdPD7OKZGhMfjx9xxMGi5MH1V8Vw2ugABIFjYFJcuYiPFvXv3XFD93AI4mFGOsW5bVxLOw4RcRO7cueNERTdJT8evi4TIvPsAYmDXQj/hA9LRo0f7RcnLtXyRAg2EjgG+GFywoEiPU1VVxaNkHJPreFA369TJU06aMAhCnj59mpGHXxcJcbkuUK6g8U0+dBELKY4ePer2y/ECUVwJMhDWLlDl1hWlRcs4xTiCO6fpLSB9QTIeVEq1bdvWVVoQIfAc33QB+cUl+SIFxmI6jpzM+Ctm3bUD8U0Clx1KM6higyxIl0TXBbpDQcJ1gen5oDFLPnSRN1J8+fJFYcEKt0cQSGhBcnUQ4y9L6SLUuzI6qIjDFyTt3LnTVZ5JCXgfng++fEFCfVvEN6UZ9HzU63GRAjsy8gVBU6ZMcd5d38/30aNHgUUlrPbt22eMg64mCfe+Dfq6IK6ui5MnT1ISGWE+dJEzKVDhe/bs6alABJAe9uvXz+3bZ7wNu4DFK6gAiI9+vJ6Ofo649OOgI0m0RlhMQ4LZJXre1EdGl4rioRwm4ZXH9OUxpRHlXr5IwbtPOOaVndauwDUf3SX+bpgB0vfb4o1VmN1I1wW+ToSxTbrImRR6X49eMiiMUmlOnfq/7xmURtj1oAqGGRVMydLzpq/XqlWr3Hj8S6OnDWMWpYcwzr8eyxcp8A5U2TEtOnjwYKexogYI6yVQgSE6MWBrmjFjhjNjhdk6vDOcO/Upbh0nv3PaMxhp2KSLnElBLXTUMKi/yUHDGCRqeno8fLmChJMtbDoXFYUqu6kV412AsDSDyhX1Ot6VyhSlcQlLF+MfSo9CTIro3RMQA7jyBgXxMThHax82APcrB56hPMNwS1oXOZPC74VtvQaPU1IE7UIRVFb+t2KmVoxX1JUrVwYll5frPK98kAKFwqo5NBZID9PQYYIvCBoCuO78+fMnLHrgfXxZbNVFSZGCugxQRmVlZaDCsGacFIbtdYIEhjqKh5CmfYPi53o9DlLkWqZsn6fBvI26KBlS8J0roAg++NYVyzdVMHXHQCwiBcZWXDA4z/dMVLGQAgZVGo9URxfTp0/nEHuOuS707hhwQy8hqpQMKbidA18Mk/AZKpONhc/3L1682E2S8vJb74E9cOGyEmQwdBPxOSgWUmBcSY1JdXQBXIOE64J7FZh0EZRWyZCCe3xir1STwHpNSjN9UbhBiVdyuCJglobvi4T8+OAS6Q8bNsxUjIx7xUKKbHWh48kB4rqgmTPcHzVqlK8u+LP6ccmQAt0ZqujcUKUDAkApHiqhSTAVibiYyiTZu3evc23FihV0yQ254ZDywA4dUaVYSJGNLjjGfniRLoArfKogmAzAeXUnJUqGFFQJ0YKb9jgFgBQ3DExyUoRrMxQA6zrSD1qyydOmPPy6WFAoPANAAvpRfD0sKytzbA6Ix1tIv4pjyzV6B5Q9qi7wfiYhXSBtCHSBrpluzDWlQfdKjhTY78gkvOKa7BNIA9u5QFmkZIS8P+uXDwbx6J7Rc0HbxVA5QDL4biG+3w8bCdCu7GkjBVzXTUIYAFccm8RPF0OGDDE9EnivZEgBv6ywSk4oYSBYHYMUrNrwjTL1eSltCuHQBmWjS1VqAl3gvekv3EzvD3sG7ChRBQ0DPHyjGImD0iwZUgQBUKjrtG2lbj0uVHkk378ICCn+YpHoEf5fA18KjEVE7EJASFEgfWDaFvYQEfsQEFIUQCfkbo3NFETsQ0BIkbBOsKoN3SaTO3rCRZLsNASEFBogcZ5iRgtz5zBeYW2HiJ0ICCkS1guIUZ3p3oSLJ9kltUOgIC0IpAkB+VKkSVtS1kQQEFIkArNkkiYEhBRp0paUNREEhBSJwCyZpAkBIUWatCVlTQQBIUUiMEsmaUJASJEmbUlZE0FASJEIzJJJmhAQUqRJW1LWRBAQUiQCs2SSJgT+A8+Q9B0SLvrpAAAAAElFTkSuQmCC;" vertex="1" parent="1">
          <mxGeometry x="228" y="1104.9" width="62" height="28.64" as="geometry" />
        </mxCell>
        <mxCell id="DSj267PYMwhFIxjZ_51a-24" value="" style="shape=image;verticalLabelPosition=bottom;verticalAlign=top;imageAspect=0;aspect=fixed;image=data:image/svg+xml,PHN2ZyB4bWxucz0iaHR0cDovL3d3dy53My5vcmcvMjAwMC9zdmciIHZlcnNpb249IjEiIHZpZXdCb3g9IjAgMCA0OCA0OCIgZW5hYmxlLWJhY2tncm91bmQ9Im5ldyAwIDAgNDggNDgiPiYjeGE7ICAgIDxnIGZpbGw9IiNEMUM0RTkiPiYjeGE7ICAgICAgICA8cGF0aCBkPSJNMzgsN0gxMEM4LjksNyw4LDcuOSw4LDl2NmMwLDEuMSwwLjksMiwyLDJoMjhjMS4xLDAsMi0wLjksMi0yVjlDNDAsNy45LDM5LjEsNywzOCw3eiIvPiYjeGE7ICAgICAgICA8cGF0aCBkPSJNMzgsMTlIMTBjLTEuMSwwLTIsMC45LTIsMnY2YzAsMS4xLDAuOSwyLDIsMmgyOGMxLjEsMCwyLTAuOSwyLTJ2LTZDNDAsMTkuOSwzOS4xLDE5LDM4LDE5eiIvPiYjeGE7ICAgICAgICA8cGF0aCBkPSJNMzgsMzFIMTBjLTEuMSwwLTIsMC45LTIsMnY2YzAsMS4xLDAuOSwyLDIsMmgyOGMxLjEsMCwyLTAuOSwyLTJ2LTZDNDAsMzEuOSwzOS4xLDMxLDM4LDMxeiIvPiYjeGE7ICAgIDwvZz4mI3hhOzwvc3ZnPg==;shadow=0;strokeWidth=2;" vertex="1" parent="1">
          <mxGeometry x="228" y="1060" width="48" height="48" as="geometry" />
        </mxCell>
        <mxCell id="DSj267PYMwhFIxjZ_51a-25" value="" style="shape=image;verticalLabelPosition=bottom;verticalAlign=top;imageAspect=0;aspect=fixed;image=data:image/svg+xml,PHN2ZyB4bWxucz0iaHR0cDovL3d3dy53My5vcmcvMjAwMC9zdmciIHZlcnNpb249IjEiIHZpZXdCb3g9IjAgMCA0OCA0OCIgZW5hYmxlLWJhY2tncm91bmQ9Im5ldyAwIDAgNDggNDgiPiYjeGE7ICAgIDxnIGZpbGw9IiNEMUM0RTkiPiYjeGE7ICAgICAgICA8cGF0aCBkPSJNMzgsN0gxMEM4LjksNyw4LDcuOSw4LDl2NmMwLDEuMSwwLjksMiwyLDJoMjhjMS4xLDAsMi0wLjksMi0yVjlDNDAsNy45LDM5LjEsNywzOCw3eiIvPiYjeGE7ICAgICAgICA8cGF0aCBkPSJNMzgsMTlIMTBjLTEuMSwwLTIsMC45LTIsMnY2YzAsMS4xLDAuOSwyLDIsMmgyOGMxLjEsMCwyLTAuOSwyLTJ2LTZDNDAsMTkuOSwzOS4xLDE5LDM4LDE5eiIvPiYjeGE7ICAgICAgICA8cGF0aCBkPSJNMzgsMzFIMTBjLTEuMSwwLTIsMC45LTIsMnY2YzAsMS4xLDAuOSwyLDIsMmgyOGMxLjEsMCwyLTAuOSwyLTJ2LTZDNDAsMzEuOSwzOS4xLDMxLDM4LDMxeiIvPiYjeGE7ICAgIDwvZz4mI3hhOzwvc3ZnPg==;shadow=0;strokeWidth=2;" vertex="1" parent="1">
          <mxGeometry x="419" y="1060" width="48" height="48" as="geometry" />
        </mxCell>
        <mxCell id="DSj267PYMwhFIxjZ_51a-26" value="" style="shape=image;verticalLabelPosition=bottom;verticalAlign=top;imageAspect=0;aspect=fixed;image=data:image/svg+xml,PHN2ZyB4bWxucz0iaHR0cDovL3d3dy53My5vcmcvMjAwMC9zdmciIHZlcnNpb249IjEiIHZpZXdCb3g9IjAgMCA0OCA0OCIgZW5hYmxlLWJhY2tncm91bmQ9Im5ldyAwIDAgNDggNDgiPiYjeGE7ICAgIDxnIGZpbGw9IiNEMUM0RTkiPiYjeGE7ICAgICAgICA8cGF0aCBkPSJNMzgsN0gxMEM4LjksNyw4LDcuOSw4LDl2NmMwLDEuMSwwLjksMiwyLDJoMjhjMS4xLDAsMi0wLjksMi0yVjlDNDAsNy45LDM5LjEsNywzOCw3eiIvPiYjeGE7ICAgICAgICA8cGF0aCBkPSJNMzgsMTlIMTBjLTEuMSwwLTIsMC45LTIsMnY2YzAsMS4xLDAuOSwyLDIsMmgyOGMxLjEsMCwyLTAuOSwyLTJ2LTZDNDAsMTkuOSwzOS4xLDE5LDM4LDE5eiIvPiYjeGE7ICAgICAgICA8cGF0aCBkPSJNMzgsMzFIMTBjLTEuMSwwLTIsMC45LTIsMnY2YzAsMS4xLDAuOSwyLDIsMmgyOGMxLjEsMCwyLTAuOSwyLTJ2LTZDNDAsMzEuOSwzOS4xLDMxLDM4LDMxeiIvPiYjeGE7ICAgIDwvZz4mI3hhOzwvc3ZnPg==;shadow=0;strokeWidth=2;" vertex="1" parent="1">
          <mxGeometry x="598" y="1042.9" width="48" height="48" as="geometry" />
        </mxCell>
        <mxCell id="DSj267PYMwhFIxjZ_51a-27" value="" style="shape=image;verticalLabelPosition=bottom;verticalAlign=top;imageAspect=0;aspect=fixed;image=data:image/svg+xml,PHN2ZyB4bWxucz0iaHR0cDovL3d3dy53My5vcmcvMjAwMC9zdmciIHZlcnNpb249IjEiIHZpZXdCb3g9IjAgMCA0OCA0OCIgZW5hYmxlLWJhY2tncm91bmQ9Im5ldyAwIDAgNDggNDgiPiYjeGE7ICAgIDxnIGZpbGw9IiNEMUM0RTkiPiYjeGE7ICAgICAgICA8cGF0aCBkPSJNMzgsN0gxMEM4LjksNyw4LDcuOSw4LDl2NmMwLDEuMSwwLjksMiwyLDJoMjhjMS4xLDAsMi0wLjksMi0yVjlDNDAsNy45LDM5LjEsNywzOCw3eiIvPiYjeGE7ICAgICAgICA8cGF0aCBkPSJNMzgsMTlIMTBjLTEuMSwwLTIsMC45LTIsMnY2YzAsMS4xLDAuOSwyLDIsMmgyOGMxLjEsMCwyLTAuOSwyLTJ2LTZDNDAsMTkuOSwzOS4xLDE5LDM4LDE5eiIvPiYjeGE7ICAgICAgICA8cGF0aCBkPSJNMzgsMzFIMTBjLTEuMSwwLTIsMC45LTIsMnY2YzAsMS4xLDAuOSwyLDIsMmgyOGMxLjEsMCwyLTAuOSwyLTJ2LTZDNDAsMzEuOSwzOS4xLDMxLDM4LDMxeiIvPiYjeGE7ICAgIDwvZz4mI3hhOzwvc3ZnPg==;shadow=0;strokeWidth=2;" vertex="1" parent="1">
          <mxGeometry x="419" y="1036.36" width="48" height="48" as="geometry" />
        </mxCell>
        <mxCell id="DSj267PYMwhFIxjZ_51a-28" value="" style="shape=image;verticalLabelPosition=bottom;labelBackgroundColor=#ffffff;verticalAlign=top;aspect=fixed;imageAspect=0;image=data:image/png,iVBORw0KGgoAAAANSUhEUgAAAMoAAABiCAYAAAARKkwrAAAOWElEQVR4Ae1dB6vVTBN+/5Oo2K69gh3sXitiF9srKvYudrGi2Hu/ei3YO4JdrHDFCnaxV8jLk++bMGdPdpOccs+eZAYum5tMNtln9tns7szu+ccREQQEgUAE/gnUEAVBQBBwhChSCQSBEAgIUUKAJCqCgBBF6oAgEAIBIUoIkERFEBCiSB0QBEIgIEQJAZKoCAJCFKkDgkAIBIQoIUASFUFAiCJ1QBAIgYAQJQRIoiIICFGkDggCIRAQooQASVQEASGK1AFBIAQC1hPl9+/fzvnz551NmzY5586dc759+2YsVkVFhXP58mWjjlwUBKIiYDVRNmzY4NSvX9+pUqWK99e8eXNnzpw5Tnl5ufPy5cuU8oJIHTp0cHWPHz+eck3+EQSyQcBaoqxatcojByeKetyoUSOnX79+DghE14YMGRL45ckGNLk3eQhYSZQdO3Z4lZ4qf5T09evXybOklDivCFhHlCdPnngkGTRokHPz5k3364DKf/XqVWf69OlO7dq1PR1OoJKSElc/r4hJ5olEwDqiwAoYX4wZM0ZrkO/fvztlZWXO0KFDncaNG7vjkvnz5zsfP37U3iMXBIFsELCSKNkUSO4VBPKBgBAlH6hKnrFDQIgSO5NKgfKBgBAlH6hKnrFDoGiJcvHiRadNmzbu7NefP39iZxgpkF0IFCVRzpw5kzI9/ObNG7tQlbeJHQJFRxTEfvXo0SOFKA8fPoydYaRAdiFQdETxC225cuWKXajK28QOgaIiyt27d52aNWumfE3gmT927FjsDCMFsguBoiLKv6P/TSMJiLJ9+3a7UJW3iR0CRUOUsgNlviQBUVauXBk7w0iB7EKgKIiC2C5aZ8KDIOl41qxZdqEqbxM7BIqCKGvXrvW+Jn369PGOiSijR4+OnWGkQHYhYD1RsIoREcIgxfjx4x2seiSCUNq3b1+7UJW3iR0C1hNl3rx5LjGqVavmXLt2zTlw4EAaUdq1axc7w0iB7ELAaqJg0RZ9NbBOHoKNJugcpVhXLyII5BMBq4kyfPhwlxRYF//8+XMXh9u3b6cRBYT5+fNnPnGSvBOOgLVE2bNnj0eIzZs3e2Z6/Pixd56+KEhfvXrl6ciBIJBrBKwkytu3b51WrVq5hMCOKlwQAMkJQsf379/nanIsCOQUASuJQgP4qlWrpm0WAZ8KkYOnCLsXyS0C2Gzw4MGDDuzRuXNnp0aNGk779u2dcePG+YYNYeNBTOVjUxDYBssg0H3GfmvFLtYRBQGORAAEQPoJDEY6lB46dMhPVc5liMCtW7dcchC+fil27yTBhiB+OnSu2OPxrCMKuloAt0uXLs6PHz/IDilp69at04yycePGFB35J3MEdu/e7eGLLwLGi8+ePXP/cFyrVi3vOnbD4SSZOXOm++DPnz+720uRPdGVxrliFauIcuTIEc8AphYIO0NSS0UptisSyR6BS5cuedgePnzYN0O/pQ6ww+rVqz39T58+OZMnT/bywvXTp09714vtwCqi9OzZ0wUWUcImmTBhQooBYAQJYzEhFu4aoiCo4Vm8eLH2pgsXLnh6pA+nL8hB4hfpvW3bNrpcdKk1ROHbqD548MAI5NKlS9MMVVpaarxHLgYjgA0FUfExWDcJ72oRUXbt2uXd8uHDhzT7QA9T+8UqVhDly5cv7mwKwFywYEEglmiZyECUNm3aNPC+uChgR0xELWC8sHPnTgcTIC9evMiqeJixIiyxda1JtmzZ4uniHkyuvHv3zrsFzmHKi1Is3y5msYIoPDpYN4DnIGP8QgbgaRJ2Y6Gpc15uOu7WrZuDcV4msmjRIhdTjP+CZMaMGSn4q74u3M/Hkbhe7BunF5wo+Bw3aNDABX7r1q1BNnKvo8WjysHTbFvVUA8voBJFUaMS4kty9OhRB5MYHTt2TMFj2LBhkd8SA2/ki1msIMF4hOO+bt0631sQLYFN1+MgBSfKpEmTXNCbNGniTieCBGH+uKHoOKjLUMwGGzt2rIsT911QeVAhyclHWOhmrOieTNPr16+nkATPQ/xd3KWgRDlx4kQa6GToTNKzZ8/G0l6YdgUeOgcsCo2wn2bNmqXgeefOnZzjoU4Nw1OfBCkYUX79+uV07949xbCZkIPfk69WtNAVYdSoUS5OderUcUzTtmolnjp1as5fvX///ik2w+/VJEEKRhRqJVHRw3S1VJ26deumGAz5wKMcR1EjEXRdTHxBeMOBfQZyKfCsV69ePeUZSQkdKghR+P5cS5YsyciWFF3MKwaWCcdR1C4VpoX9BFO0HA8cv3//3k81o3PwrKv5x30ChYAqCFHIa4uViehbZyJwMKpGM3VLMnmGLfdgZouXVf01ZP6eXA/HuXTyqe+BxiopUulE4ftzmQanQQYgLzKvGFHCWLCkGAF/WD2JnV3279+f8kjsZwzHJmab6Ce8MYXqF87PQ9Hx+5Kl3UvdgXemjUDKi/z/n4qKirR39NPjeGAMmEtBqD3P3/TzgfRcODJhZxMWCIkBthiDhbFF27ZtHQRf+oXvY4IIvRSUPZe2qFSioGtAP9WAuX+sd8hU/OK9OnXqFCo7CsGAofFHxsd5CMY68O2gywMywdANGzb09BBuQ0KONTj75s6d6+pTfjiHqIPKEjUGC47csALbYNKgXr16bhlu3LiRcitsReWiNExDRxM2Ol2E8yMaOVNb8G4oOULzYYtKJQoqEoGMVjgbQagL5UUp9iUOEsy2octAhuNxSfAgk18HYRpcEGZOz2nRooV7Cb9tD+cbjM2Fl7Myu4M8Whetc9hd/hENgWUNVD6kaAC4YAKBX8cxNSxcjx9z4uqWatPXF/dlYguQAgI/Uj5tUWlEuXfvnge0X8gDBzjMMdbRq4bD/0FC4S/kY0BlUvPx614hX971AFl0s0p80Dty5MigV8rJdYxb+M+Kr1+/PnS+aDRUDPBl4QJHp6qD7qBJiLi6Ltqpk6fcPOHEhDx9+jTtGX7dK+hyW+C9dOOlXNmiUoiCUAvq56NQYcIkTAbANarwqvGC7kNXigfoqS0lfWn88mnZsqVnSB1JcB+6A/ReeF5lyLRp07xnwtcRRTC2o/ellBMcQZhq2Ar0TIJwJMpLV9lBIORLotoCXSmdcFvAVaAbA+XKFnkjytevXx0sAuL+EgIOLU22QXIcAMoXqdoNUoGGDl/khZgput9kGJSH9JDiC6kT6itDz5Sn7v6o57G6k94NDdKjR48iZaESBTFlfJHVxIkT3fzV/Z9Nz6H32bdvn/ZdoINuKgmPStZ9haCr2uLkyZOURVqaK1vknCggQdeuXT3DEWB+aa9evbyxQloJ2QksCEKfGfoYF/jlxc9Bl/64IZAlWi0+vUoxVLjf1OdGd4yegfcwCa9Qpi+UKY+w1/h7YcIhE+FdLxxzAtDaHyxjQFeLlw0zT+p+arwBC/JrqbbAV4wwts0WOSeK2nekguvSMBXp1Kn/9WV1eQSd11UezORgepjuN33lVqxY4enxL5KaNxxwlB/SsANqNZ8w/6Pi0ixi7969w9yi1SECYBJgwIABbgNGjRLWm6BSQ1Sy4AuGbh+6mOQYRYCrOt2ufTC7QNHRwM02W+ScKNSSh011/VeGnzumCZufqocvnE44AYOmllF5iACm1o53H4Ly1L1X2PNUuadMmRL2FqMeKjuVkVJMvKhdG5AFuPJGBvqYAMBXAdejCu6hZwbhVghb5JwoUQEqpP7s2bM949DuIbr34T+JZ2rtQFQy+PLly3XZZX2enrNmzRrfvPAFoD9fBc1JrE5EA4IvPabEgwTPQOOAsKS/f/8GqWuv4wtEuNloi0QThVpkGKi8vFxrRKzhJyMiQFEncC6SHlKagtbpZ3qe1p6ovh6eH9a94x3gmygGoQkDvLONtkgsUfiOIzAOH+CrFYtvfGHqysHAyAt/GKtxwQRALmbAaMluUKQ0wjwQXVAMAicwjW+i2MK0jIDbQu3K4WuM3kQUSSxRuB8GXxaT8Jkxkw+IT7MuXLjQy5Ke5bdeBnsmIxxH5+T0MmH+maDN/sjDjTChYhCMU6mBiWIL4KoTbgseHWGyhS4vnE8sUXgkLDZsMAm88GRI05eHO8F4xUeYBWaH+L5XeB4fwCL/wYMHa1+DNuDA2EH3h749Bt80fslk7bz2BfJ4IVNbqHjyV+S2oBk7XB8xYoSvLfi9fseJJQq6QlT5uXNNBQkgkx4qoEkwLQpdTKuS7N271z23bNkyOuWl3NlJz8DWQ6rwMAzSC5P6PVPN24b/M7EFx9ivDGQL4ETjNEw44P8wLgk1z8QShSoaWnrTnrgAlXSDAKZATYwPYBRECSB/3XJZnjc9w697xicdSC9MauqaqBWhkP9TWUpKSkLbIqjRIlsgbwhsARxVB3TYcieeKBgcm4RXZpP/BHlgax7q9pDxef/Y7zmYKEDXju7z2/qH8oqaUkvq91ybzlG5EOZvEm6LoEbLzxYDBw40ZW+8lliiIA4tqOITchhsRnGiwTuPWDBTH5ryphRBfagw6I4lTWALlJt+ftBUfvhb4OcJK+g6I/I5jGPblGdiiWICpRDXaEtT1QteiHeRZ6YjIERJx6QgZygCGGMbEfsQEKJYYhNMIcNfI2InAkIUC+xCoenY8ELETgSEKAW2C1YPYhBvCt0v8CvK45PsmbfB+phJw9w+HG7Z7EhjQ1ni/g7yRSmwhUGWKFPPBX7dxD5eiJJY00vBoyAgRImClugmFgEhSmJNLwWPgoAQJQpaoptYBIQoiTW9FDwKAkKUKGiJbmIREKIk1vRS8CgICFGioCW6iUVAiJJY00vBoyAgRImClugmFgEhSmJNLwWPgoAQJQpaoptYBIQoiTW9FDwKAkKUKGiJbmIREKIk1vRS8CgICFGioCW6iUVAiJJY00vBoyAgRImClugmFoH/AA5xkQb5r9e1AAAAAElFTkSuQmCC;" vertex="1" parent="1">
          <mxGeometry x="425.01" y="1106.36" width="64.99" height="31.53" as="geometry" />
        </mxCell>
        <mxCell id="DSj267PYMwhFIxjZ_51a-29" value="" style="shape=image;verticalLabelPosition=bottom;labelBackgroundColor=#ffffff;verticalAlign=top;aspect=fixed;imageAspect=0;image=data:image/png,iVBORw0KGgoAAAANSUhEUgAAAMMAAABkCAYAAAA7ZoT8AAAOsElEQVR4Ae2dic/VRBfG/Z8MEEEQEBUlbEpkk0UgBBRMQJAIcUFwI+yCLIkhyuIGKCBbEFTWmIiKqCwJIIsJi4KAgAhJza/fd5rTvp22773vvbd9e05yM12m05nnzDM9M3Nm7j2eiSFgCPgI3GM4GAKGwP8QMDJYTTAE/o+AkcGqgiFgZLA6YAiEEbAvQxgPOysxAkaGEivfih5GwMgQxsPOSoyAkaHEyreihxEwMoTxsLMSI2BkKLHyrehhBIwMYTzsrMQIGBlKrHwrehgBI0MYDzsrMQJGhhIr34oeRsDIEMbDzkqMgJGhxMq3oocRMDKE8bCzEiOQKzL8+++/3p49e7yVK1d6u3fv9m7cuJGomhMnTngHDhxIjGM3DYGsCOSGDO+//77XpUsX79577w1+jz76qPf22297mzdv9n7//fdQmSDLk08+6cfdsWNH6J6dGAKVIJALMixbtiwggCZD9Lhbt27e6NGjPUgi98aPH5/6BakEGHumfAg0nAwff/xxULGlgjcnvHDhQvm0ZiWuCQINJcNvv/0WEOHZZ5/1fvzxR7+Vp4J/99133syZM737778/iKNJ0qlTJz9+TVCxREuJQEPJAOLY+1OmTHGCf/PmTW/jxo3ec8895z300EN+P2HOnDnelStXnM/YDUOgEgQaToZKMm3PGAK1QMDIUAtULc1CImBkKKTaLNO1QMDIUAtULc1CIlAIMuzbt8/r06ePP6p0586dQgJtmc4/Arknw9dffx0aWr148WL+UbUcFhKBXJMBX6Vhw4aFyHDs2LFCAm2Zzj8CuSZDnJvGt99+m39ULYeFRCC3ZPjll1+89u3bh74KzEBv3769kEBbpvOPQG7J8MLkF5oQATJ89NFH+UfVclhIBHJJho0bNsYSATIsXbq0kEBbpvOPQO7IgC+SrFPQjnly/Oabb+YfVcthIRHIHRnee++94KswcuTI4FjIMHny5EICbZnOPwK5IgOr2fBMpeJPmzbNY/WbkEDCUaNG5R9Vy2EhEcgVGWbPnu1X/rZt23oHDx70NmzY0IQMjz/+eCGBtkznH4HckIGFPdL6s+4ZYXMAuSYh66RNDIFaIJAbMkyYMMGv+KxzPnv2rF/Wn376qQkZIMU///xTCywszZIjkAsyrFu3Lqj0q1atClRy8uTJ4Lp8GQjPnz8fxLEDQ6ClEGg4GS5duuT16tXLr/TsdKEFpzxNAjk+cuSIjmbHhkCLINBwMkinuU2bNk0W+DPnIATQIS7dJi2LABu2bdq0yUMfAwcO9O677z7viSee8KZOnRrrAsPmbQyDs5EDusHFHlOX/ayKKg0lA053UslxyosTlCJxJPziiy/iotq1ChE4dOiQTwDBNy5kl0MRNnGIiyPXiuo/1lAyYBYB4KBBg7xbt24J1qGwd+/eTYD/4IMPQnHspHIE1q5dG+BLy07/7cyZM/6P4w4dOgT32aVEE+GNN97wX3zt2jV/ax/RJ2Yv14omDSPD1q1bA5CTWhJ20JMWR0K2ijGpHoH9+/cH2G7ZsiU2wTg3evSwfPnyIP7Vq1e9V199NUiL+1999VVwvygHDSPD8OHDffDwTk2Sl156KQQyQJtLRhJi2e4x2y+Ny4IFC5wP7d27N4gn8Zn4hAAicR7GH374odwuTNgQMugtJY8ePZoI1jvvvNNEGUOHDk18xm6mI8CmbFRuOshJos0iIcOnn34aPHL58uUm+iEew+JFk7qT4fr16/4oBYDNnTs3FS9aGFGChI888kjqc60lAqM8dHCx7TFZ+HFejTASJFiyjWeSrF69OojLMwxo/PHHH8EjTJBKWhKyVLeIUncyaK9UV6dZA0l/QkDWYRl2ydi1a5cXN4AADgxlQpBKZP78+T6m9MfS5PXXXw/hH50L4nndr+N+UTeDrisZ+HR27drVB3fNmjVpevDv03JpEsjxuXPnMj1f1EjPPPOMX+5x48Z5n3/+uccfs2Cn09Ht2bNngAlrP5ordHapwIwOpQn9A8GccMWKFbGP4BXARtJFlrqS4ZVXXvGBffjhh/2hOCp6lp9Whhynfd6LrBQqHOV0zb1oM4d4uLvXQr7//vsQEXgX/mKtVepGhi+//LIJsFKxKwm/+eab1qoTr3///gFWLkL06NEjiAN+tTBNeLfWDTPSrVnqQobbt297Q4YMCQGrQa7k2DUuXnRl6SFPwSWuoms7nXiM+rS0jBkzJqQz/i+jNUtdyMAEjSg2i1kUjfPAAw8Ez0s6lXYe865MRmqkjBLG5Vl/PYjX0o0DM8jt2rUL5aW1u8HUnAx6/6OFCxfG6TX1mni1SuUgZEloa5XXXnstqIR6pleXVwYiBJPTp0/r21UfM4MsaUvY2gctak4GmZ1khRru2pUIk2yiEAmTZk0reUfensG0dAlmk+BAmPTPR6400q7j8qLfQYPU2qWmZND7H7k6glkAltlSrZzmuGSwfBQnNFbRseMGQ5Va2L+Vyb0XX3wx+Ptdhh/jXMW1mzP/Nzd0yFB/1KdSout8ZD2OdmyrnYSLey9u3BrvLIRjlIu8JWGBewfYduzYMZMu+vbt6+EQGOcazqAM1gb90ZbQRc3IgO0r28hj36b9wXmcQuRanH/SgAED5HZiKO4EKJOfKFg6nPQ9MDm6d+/uEwZlPvjgg0E8XEdEpNP61FNPebNmzfLjS3pcY3a91kJ/igoi762k74RuJk2a5HXu3Nkvww8//BDKNrqS9CXM0pjJIIkrLqTFC7ZSXeBFKyKTgS2pi5qRgcoiQNKaViO4bUhaErIPa5pgavB5F+VoPxpmSmXeA5cDLbgwy3see+wx/xb/Pc0EVLQV1uWslemGWfTzzz/75ZD9ZzE7pVw672nHzPrjMi/lI4TkWiCcvs+xNB46nj7WDn2uZbnyFeW5SnRBxUdYUFQLXdSEDL/++msAZtz0vQYxyzHroqPK4TxNxJXj8OHDflTMoWg6caYQkbWZACFcM726o/n888+nZanZ98V1QucbE5GBiUoEAum0OOYLoYWFPNE4zIAnibhwu8ypXTt3+WkykYfQ4Y++I84UIq7WBc+4+i/V6qLFybBt27bA7ibjWab8k0DmnlTqKHhpz9FP0E5j0RYvqWXN6vKgNzPgfS0tMsxMRSG/NC6CQ1L+XfmASPK8hJrE/KVw1AWDeEmCa42k5arQkIR0RaK6wOxxidYFw+yuPkm1umgRMvz9998eC0X0fIKAQ4sRN2nkKnjcdV1ISZcwarJEnyWOXgj0ySefBEpLAp/y6PfwpXOJ2K7ET0rT9Xwl13Xfh4rcnFVlUTKwg6FeiPPyyy/7ZY/ud3v8+HFnVgWrzz77LDEOJqWI9oZ1fU2IG9XFzp07JYkmYbW6qIoMVPTBgweHKo4AEw2ffvrpTDYuzmjYsMTHTo+mEz0nrvw02CBF68OMrgijRfJ8kg2M6STxyEeS6EpTSUudlHbSPVmITz7ZclOXM+k58ihl41hXclk7gos8ZpEuGyM60f2qdCOVNu8T1QUklnzkRRdVkSFqy0nhXGGWyoLbsuv5LNddFYEREoZWJY2kr9WSJUuCePrLEk2bSShJj7Cef7G1ePHi0LvTSKvzLpWc4c2xY8f6jZQ0PKxXoOIiUULQaZ8xY4Y/AsXoG2XG6TI6VK3f5TqWPXVJIy+6qIoM0iJnDV32pAaMPkbW9KLx+FK5RJMsbViWCiKVPKnV0p/6tDRd+ar0etRzlfz++eefmZOjfyNllJD+SNQMgRDgqhsS4tPppnVP61jHZYhn5J1puNVTF1WRIa6geb321ltvBQqQXR1ceZXhSxSW1GpBRlHqu+++60qu2dfpfyWRUBKUd0vI5GJzhFVqNBJ8sRlOThO+GDQAjGTdvXs3LbrzPl8SyXOedFEaMohpgBI2b97sVBRrskVRrDJzCRNsEo9Qhm9d8bNex9yRdCGbS5hDkXgS6glC13N5uC6ddPKdJ12UggxRt+ikzqberCDJ7EKJUgnpO2mhQlcyssRXSNKUUOx3nT7HcWuPKzFZounW+hwSS3+DMmbVBc6LLtG6iJpdNChYBVmkFGTQ8xR8IZJEjzglzZHoIcp58+YFScq74lyq2SMW1xLXRF9cBXeZS5BECEOYVq4ggw0+oN8o+U7Ls9YFuLpE60J7ASTpIi6tUpBBe2Cyl2iSMNssykpqtfREkK7cuAww6qL3FeJ9utNI+qxtjhOdrrgfxMXTZSK9tKHNuDQacU3nuzm6iOKp864x01/SiRMnxupCP6uPS0EGbYfrCSYNBMe6tU2y14nLkCKVkCFJkfXr1/vXGPaMip7wE7LF/cG7+GHRqXWZPZhTmAOSzogRI6Kvy+15JbrQGMcVTHQBHvg8IXTyOc8ynC9ploIMUmlosZNmawFO4qaBKJUWD1KAZzac9F1LI3Xa8o44UwrFMIlGHMwIyPvXX3+JvrxTp0552qWdVrFIImXv1KlTZl2kNUyiC9JG0AXYRSdh03AqFRlweksSXWFdtro8z7YoKEmUS6jtVYmnQzrnmGHynGvbFdLWrgWk3a9fvyZ7KBXFNNIYCF64kCeJ1kVawxSnC7baaa6UggxZx+0Bjw6eyzyJA5dZaHyXkmza6HM4mlEpMJ2ShHQXLVrkTZ8+3f8aUIHorLO9Y5yJlZRWXu6hC8rNYEGaMB/BPEhWwczF4zbL5G5cmqUgQ1zBG3lNZo+js72NzJO92/OMDA2oBfy/BF+GStckNCDLpXilkaEBambIlDF0k3whYGSosz7E7bm5fkR1zmYpX2dkqKPaWUWGeZTkFl7H7NirIggYGSKA1OqUESrGvpl0qmankFrlz9K1DnRd6wCEaM6wbV0zZy+z0SSrA4aAIGBmkiBhYekRMDKUvgoYAIKAkUGQsLD0CBgZSl8FDABBwMggSFhYegSMDKWvAgaAIGBkECQsLD0CRobSVwEDQBAwMggSFpYeASND6auAASAIGBkECQtLj4CRofRVwAAQBIwMgoSFpUfAyFD6KmAACAJGBkHCwtIjYGQofRUwAASB/wDPVfZR2Xf6qwAAAABJRU5ErkJggg==;" vertex="1" parent="1">
          <mxGeometry x="609" y="1104.9" width="61" height="31.28" as="geometry" />
        </mxCell>
        <mxCell id="DSj267PYMwhFIxjZ_51a-30" value="" style="shape=image;verticalLabelPosition=bottom;verticalAlign=top;imageAspect=0;aspect=fixed;image=data:image/svg+xml,PHN2ZyB4bWxucz0iaHR0cDovL3d3dy53My5vcmcvMjAwMC9zdmciIHZlcnNpb249IjEiIHZpZXdCb3g9IjAgMCA0OCA0OCIgZW5hYmxlLWJhY2tncm91bmQ9Im5ldyAwIDAgNDggNDgiPiYjeGE7ICAgIDxnIGZpbGw9IiNEMUM0RTkiPiYjeGE7ICAgICAgICA8cGF0aCBkPSJNMzgsN0gxMEM4LjksNyw4LDcuOSw4LDl2NmMwLDEuMSwwLjksMiwyLDJoMjhjMS4xLDAsMi0wLjksMi0yVjlDNDAsNy45LDM5LjEsNywzOCw3eiIvPiYjeGE7ICAgICAgICA8cGF0aCBkPSJNMzgsMTlIMTBjLTEuMSwwLTIsMC45LTIsMnY2YzAsMS4xLDAuOSwyLDIsMmgyOGMxLjEsMCwyLTAuOSwyLTJ2LTZDNDAsMTkuOSwzOS4xLDE5LDM4LDE5eiIvPiYjeGE7ICAgICAgICA8cGF0aCBkPSJNMzgsMzFIMTBjLTEuMSwwLTIsMC45LTIsMnY2YzAsMS4xLDAuOSwyLDIsMmgyOGMxLjEsMCwyLTAuOSwyLTJ2LTZDNDAsMzEuOSwzOS4xLDMxLDM4LDMxeiIvPiYjeGE7ICAgIDwvZz4mI3hhOzwvc3ZnPg==;shadow=0;strokeWidth=2;" vertex="1" parent="1">
          <mxGeometry x="598" y="1056" width="48" height="48" as="geometry" />
        </mxCell>
        <mxCell id="DSj267PYMwhFIxjZ_51a-31" value="&lt;font style=&quot;font-size: 14px&quot;&gt;Worker Ⅰ&lt;/font&gt;" style="text;html=1;resizable=0;autosize=1;align=center;verticalAlign=middle;points=[];fillColor=none;strokeColor=none;rounded=0;shadow=0;" vertex="1" parent="1">
          <mxGeometry x="160" y="1108" width="80" height="20" as="geometry" />
        </mxCell>
        <mxCell id="DSj267PYMwhFIxjZ_51a-32" value="&lt;font style=&quot;font-size: 14px&quot;&gt;Worker Ⅲ&lt;/font&gt;" style="text;html=1;resizable=0;autosize=1;align=center;verticalAlign=middle;points=[];fillColor=none;strokeColor=none;rounded=0;shadow=0;" vertex="1" parent="1">
          <mxGeometry x="534" y="1108" width="80" height="20" as="geometry" />
        </mxCell>
        <mxCell id="DSj267PYMwhFIxjZ_51a-33" value="&lt;font style=&quot;font-size: 14px&quot;&gt;Worker Ⅱ&lt;/font&gt;" style="text;html=1;resizable=0;autosize=1;align=center;verticalAlign=middle;points=[];fillColor=none;strokeColor=none;rounded=0;shadow=0;" vertex="1" parent="1">
          <mxGeometry x="355" y="1108.36" width="80" height="20" as="geometry" />
        </mxCell>
      </root>
    </mxGraphModel>
  </diagram>
</mxfile>
